<?xml version="1.0" encoding="UTF-8" standalone="no"?>
<svg
   width="260"
   height="260"
   version="1.1"
   viewBox="0 0 260 260"
   id="svg20"
   sodipodi:docname="Coat_Of_Arms_Of_Stojaniv_Favicon_2.svg"
   inkscape:version="1.4 (86a8ad7, 2024-10-11)"
   inkscape:export-filename="Coat_Of_Arms_Of_Stojaniv_Favicon.png"
   inkscape:export-xdpi="23.63077"
   inkscape:export-ydpi="23.63077"
   xmlns:inkscape="http://www.inkscape.org/namespaces/inkscape"
   xmlns:sodipodi="http://sodipodi.sourceforge.net/DTD/sodipodi-0.dtd"
   xmlns="http://www.w3.org/2000/svg"
   xmlns:svg="http://www.w3.org/2000/svg"
   xmlns:rdf="http://www.w3.org/1999/02/22-rdf-syntax-ns#"
   xmlns:cc="http://creativecommons.org/ns#"
   xmlns:dc="http://purl.org/dc/elements/1.1/">
  <defs
     id="defs20" />
  <sodipodi:namedview
     id="namedview20"
     pagecolor="#505050"
     bordercolor="#ffffff"
     borderopacity="1"
     inkscape:showpageshadow="0"
     inkscape:pageopacity="0"
     inkscape:pagecheckerboard="1"
     inkscape:deskcolor="#505050"
     inkscape:zoom="1.9662162"
     inkscape:cx="95.869416"
     inkscape:cy="168.85223"
     inkscape:window-width="2560"
     inkscape:window-height="1476"
     inkscape:window-x="-12"
     inkscape:window-y="1878"
     inkscape:window-maximized="1"
     inkscape:current-layer="svg20" />
  <title
     id="title1">Stojaniv</title>
  <desc
     id="desc1">Created with Sketch.</desc>
  <rect
     style="fill:#212b36;fill-opacity:1;stroke:none;stroke-width:0;stroke-dasharray:none;stroke-opacity:1"
     id="rect21"
     width="260"
     height="260"
     x="0"
     y="0"
     ry="37.734085" />
  <path
     d="m 127.76049,71.320563 c 5.23798,0.04984 33.96859,0 45.55514,0 l -6.80148,17.682287 h 40.80884 L 229.76708,53.964015 C 168.453,26.556482 115.0339,25.12949 75.38837,47.502227 10.739471,83.983565 15.563321,160.14145 51.191563,194.777 c 28.229608,27.45407 54.024017,32.69672 65.564027,35.33354 43.52323,-14.00467 80.87316,-31.22317 109.27339,-49.29323 8.30912,-16.90674 8.57126,-30.74235 7.82208,-35.03883 -1.59606,-15.52629 -11.39576,-8.2843 -14.28232,-6.12055 -5.53114,6.25084 -13.81079,15.6969 -21.09465,23.80904 0,0 -19.21784,10.37049 -32.13831,14.79107 -39.8782,-16.23978 -61.73288,-61.48471 -38.5908,-106.946784 z"
     fill="#fff"
     stroke="#000"
     stroke-linecap="round"
     stroke-linejoin="round"
     stroke-width="8.5899"
     id="path20"
     style="fill:#bd9974;fill-opacity:1;stroke:none;stroke-width:0;stroke-dasharray:none;stroke-opacity:1" />
  <metadata
     id="metadata20">
    <rdf:RDF>
      <cc:Work
         rdf:about="">
        <dc:title>Stojaniv</dc:title>
        <dc:creator>
          <cc:Agent>
            <dc:title>Makitra Taras</dc:title>
          </cc:Agent>
        </dc:creator>
        <dc:rights>
          <cc:Agent>
            <dc:title>stojaniv.com.ua</dc:title>
          </cc:Agent>
        </dc:rights>
      </cc:Work>
    </rdf:RDF>
  </metadata>
</svg>
